<svg width="30" height="30" viewBox="0 0 30 30" fill="none" xmlns="http://www.w3.org/2000/svg">
<path d="M21.25 12.5487C16.4263 12.5487 12.5 16.4737 12.5 21.2987C12.5 26.0962 16.4263 30 21.25 30C26.0737 30 30 26.075 30 21.25C30 16.4525 26.0737 12.5487 21.25 12.5487ZM21.25 27.5C17.8038 27.5 15 24.7175 15 21.2987C15 17.8525 17.8038 15.0487 21.25 15.0487C24.6962 15.0487 27.5 17.8313 27.5 21.25C27.5 24.6962 24.6962 27.5 21.25 27.5ZM23.3838 21.6162C23.8725 22.105 23.8725 22.895 23.3838 23.3838C23.14 23.6275 22.82 23.75 22.5 23.75C22.18 23.75 21.86 23.6275 21.6162 23.3838L20.3662 22.1338C20.1312 21.8988 20 21.5812 20 21.25V18.75C20 18.06 20.5588 17.5 21.25 17.5C21.9412 17.5 22.5 18.06 22.5 18.75V20.7325L23.3838 21.6162ZM30 8.75V11.25C30 11.94 29.4412 12.5 28.75 12.5C28.0588 12.5 27.5 11.94 27.5 11.25V8.75C27.5 6.6825 25.8175 5 23.75 5H6.25C4.1825 5 2.5 6.6825 2.5 8.75V10H13.75C14.44 10 15 10.56 15 11.25C15 11.94 14.44 12.5 13.75 12.5H2.5V23.75C2.5 25.8175 4.1825 27.5 6.25 27.5H11.25C11.94 27.5 12.5 28.06 12.5 28.75C12.5 29.44 11.94 30 11.25 30H6.25C2.80375 30 0 27.1962 0 23.75V8.75C0 5.30375 2.80375 2.5 6.25 2.5H7.5V1.25C7.5 0.56 8.06 0 8.75 0C9.44 0 10 0.56 10 1.25V2.5H20V1.25C20 0.56 20.5588 0 21.25 0C21.9412 0 22.5 0.56 22.5 1.25V2.5H23.75C27.1962 2.5 30 5.30375 30 8.75Z" fill="#787878"/>
</svg>
