<svg width="50" height="50" viewBox="0 0 50 50" fill="none" xmlns="http://www.w3.org/2000/svg">
<g clip-path="url(#clip0_365_481)">
<path d="M25 50C11.195 50 0 38.805 0 25C0 11.195 11.195 0 25 0C38.805 0 50 11.195 50 25C50 38.805 38.805 50 25 50Z" fill="url(#paint0_linear_365_481)"/>
<path d="M25.0002 11.0101C29.5552 11.0101 30.0952 11.0251 31.8952 11.1101C33.5602 11.1851 34.4652 11.4651 35.0652 11.7001C35.8602 12.0101 36.4302 12.3801 37.0252 12.9751C37.6202 13.5701 37.9902 14.1401 38.3002 14.9351C38.5352 15.5351 38.8102 16.4401 38.8902 18.1051C38.9702 19.9051 38.9902 20.4451 38.9902 25.0001C38.9902 29.5551 38.9752 30.0951 38.8902 31.8951C38.8152 33.5601 38.5352 34.4651 38.3002 35.0651C37.9902 35.8601 37.6202 36.4301 37.0252 37.0251C36.4302 37.6201 35.8602 37.9901 35.0652 38.3001C34.4652 38.5351 33.5602 38.8101 31.8952 38.8901C30.0952 38.9701 29.5552 38.9901 25.0002 38.9901C20.4452 38.9901 19.9052 38.9751 18.1052 38.8901C16.4402 38.8151 15.5352 38.5351 14.9352 38.3001C14.1402 37.9901 13.5702 37.6201 12.9752 37.0251C12.3802 36.4301 12.0102 35.8601 11.7002 35.0651C11.4652 34.4651 11.1902 33.5601 11.1102 31.8951C11.0302 30.0951 11.0102 29.5551 11.0102 25.0001C11.0102 20.4451 11.0252 19.9051 11.1102 18.1051C11.1852 16.4401 11.4652 15.5351 11.7002 14.9351C12.0102 14.1401 12.3802 13.5701 12.9752 12.9751C13.5702 12.3801 14.1402 12.0101 14.9352 11.7001C15.5352 11.4651 16.4402 11.1901 18.1052 11.1101C19.9052 11.0251 20.4452 11.0101 25.0002 11.0101ZM25.0002 7.93506C20.3652 7.93506 19.7852 7.95506 17.9652 8.04006C16.1502 8.12506 14.9102 8.41006 13.8202 8.83506C12.7002 9.26506 11.7452 9.85006 10.8002 10.8001C9.85018 11.7501 9.27018 12.7001 8.83018 13.8251C8.41018 14.9101 8.12018 16.1501 8.03518 17.9701C7.95018 19.7901 7.93018 20.3701 7.93018 25.0051C7.93018 29.6401 7.95018 30.2201 8.03518 32.0401C8.12018 33.8551 8.40518 35.0951 8.83018 36.1851C9.26518 37.3001 9.85018 38.2551 10.8002 39.2001C11.7502 40.1501 12.7002 40.7301 13.8252 41.1701C14.9102 41.5901 16.1502 41.8801 17.9702 41.9651C19.7902 42.0501 20.3702 42.0701 25.0052 42.0701C29.6402 42.0701 30.2202 42.0501 32.0402 41.9651C33.8552 41.8801 35.0952 41.5951 36.1852 41.1701C37.3002 40.7351 38.2552 40.1501 39.2002 39.2001C40.1502 38.2501 40.7302 37.3001 41.1702 36.1751C41.5902 35.0901 41.8802 33.8501 41.9652 32.0301C42.0502 30.2101 42.0702 29.6301 42.0702 24.9951C42.0702 20.3601 42.0502 19.7801 41.9652 17.9601C41.8802 16.1451 41.5952 14.9051 41.1702 13.8151C40.7352 12.7001 40.1502 11.7451 39.2002 10.8001C38.2502 9.85006 37.3002 9.27006 36.1752 8.83006C35.0902 8.41006 33.8502 8.12006 32.0302 8.03506C30.2152 7.95506 29.6352 7.93506 25.0002 7.93506Z" fill="white"/>
<path d="M25.0004 16.2351C20.1604 16.2351 16.2354 20.1601 16.2354 25.0001C16.2354 29.8401 20.1604 33.7651 25.0004 33.7651C29.8404 33.7651 33.7654 29.8401 33.7654 25.0001C33.7654 20.1601 29.8404 16.2351 25.0004 16.2351ZM25.0004 30.6901C21.8604 30.6901 19.3104 28.1451 19.3104 25.0001C19.3104 21.8551 21.8604 19.3101 25.0004 19.3101C28.1404 19.3101 30.6904 21.8551 30.6904 25.0001C30.6904 28.1451 28.1404 30.6901 25.0004 30.6901Z" fill="white"/>
<path d="M34.1101 17.9401C35.2422 17.9401 36.1601 17.0223 36.1601 15.8901C36.1601 14.7579 35.2422 13.8401 34.1101 13.8401C32.9779 13.8401 32.0601 14.7579 32.0601 15.8901C32.0601 17.0223 32.9779 17.9401 34.1101 17.9401Z" fill="white"/>
</g>
<defs>
<linearGradient id="paint0_linear_365_481" x1="7.32232" y1="42.6777" x2="42.6777" y2="7.32232" gradientUnits="userSpaceOnUse">
<stop stop-color="#FFD521"/>
<stop offset="0.0551048" stop-color="#FFD020"/>
<stop offset="0.1241" stop-color="#FEC01E"/>
<stop offset="0.2004" stop-color="#FCA71B"/>
<stop offset="0.2821" stop-color="#FA8316"/>
<stop offset="0.3681" stop-color="#F85510"/>
<stop offset="0.4563" stop-color="#F51E09"/>
<stop offset="0.5" stop-color="#F30005"/>
<stop offset="0.5035" stop-color="#F20007"/>
<stop offset="0.5966" stop-color="#E1003B"/>
<stop offset="0.6879" stop-color="#D30067"/>
<stop offset="0.7757" stop-color="#C70088"/>
<stop offset="0.8589" stop-color="#BF00A0"/>
<stop offset="0.9357" stop-color="#BB00AF"/>
<stop offset="1" stop-color="#B900B4"/>
</linearGradient>
<clipPath id="clip0_365_481">
<rect width="50" height="50" fill="white"/>
</clipPath>
</defs>
</svg>
