<svg width="58" height="58" viewBox="0 0 58 58" fill="none" xmlns="http://www.w3.org/2000/svg">
<g clip-path="url(#clip0_365_487)" filter="url(#filter0_d_365_487)">
<path d="M29 50C15.195 50 4 38.805 4 25C4 11.195 15.195 0 29 0C42.805 0 54 11.195 54 25C54 38.805 42.805 50 29 50Z" fill="#FF4500"/>
<path d="M34.7301 30.21C33.2951 30.21 32.1251 29.04 32.1251 27.605C32.1251 26.17 33.2951 25 34.7301 25C36.1651 25 37.3351 26.17 37.3351 27.605C37.3351 29.04 36.1651 30.21 34.7301 30.21ZM35.1901 34.485C33.4101 36.26 30.0051 36.4 29.0051 36.4C28.0051 36.4 24.5951 36.26 22.8201 34.485C22.5551 34.22 22.5551 33.795 22.8201 33.53C23.0851 33.265 23.5101 33.265 23.7751 33.53C24.8951 34.65 27.2901 35.05 29.0051 35.05C30.7151 35.05 33.1151 34.65 34.2351 33.53C34.5001 33.265 34.9251 33.265 35.1901 33.53C35.4501 33.795 35.4501 34.22 35.1901 34.485ZM20.6651 27.605C20.6651 26.17 21.8351 25 23.2701 25C24.7051 25 25.8751 26.17 25.8751 27.605C25.8751 29.04 24.7051 30.21 23.2701 30.21C21.8351 30.21 20.6651 29.04 20.6651 27.605ZM45.6651 25C45.6651 22.985 44.0351 21.355 42.0201 21.355C41.0351 21.355 40.1451 21.745 39.4901 22.38C37.0001 20.58 33.5651 19.42 29.7401 19.285L31.4001 11.47L36.8251 12.625C36.8901 14.005 38.0201 15.105 39.4151 15.105C40.8551 15.105 42.0201 13.94 42.0201 12.5C42.0201 11.06 40.8551 9.89502 39.4151 9.89502C38.3901 9.89502 37.5151 10.49 37.0901 11.35L31.0301 10.06C30.8601 10.025 30.6851 10.055 30.5401 10.15C30.3951 10.245 30.2951 10.39 30.2601 10.56L28.4401 19.135C28.4301 19.185 28.4401 19.23 28.4401 19.28C24.5451 19.38 21.0451 20.545 18.5151 22.37C17.8601 21.74 16.9751 21.355 15.9951 21.355C13.9801 21.355 12.3501 22.99 12.3501 25C12.3501 26.48 13.2351 27.755 14.5051 28.325C14.4501 28.685 14.4201 29.055 14.4201 29.43C14.4201 35.04 20.9501 39.585 29.0051 39.585C37.0601 39.585 43.5901 35.04 43.5901 29.43C43.5901 29.06 43.5601 28.695 43.5051 28.335C44.7701 27.765 45.6651 26.49 45.6651 25Z" fill="white"/>
</g>
<defs>
<filter id="filter0_d_365_487" x="0" y="0" width="58" height="58" filterUnits="userSpaceOnUse" color-interpolation-filters="sRGB">
<feFlood flood-opacity="0" result="BackgroundImageFix"/>
<feColorMatrix in="SourceAlpha" type="matrix" values="0 0 0 0 0 0 0 0 0 0 0 0 0 0 0 0 0 0 127 0" result="hardAlpha"/>
<feOffset dy="4"/>
<feGaussianBlur stdDeviation="2"/>
<feComposite in2="hardAlpha" operator="out"/>
<feColorMatrix type="matrix" values="0 0 0 0 0 0 0 0 0 0 0 0 0 0 0 0 0 0 0.25 0"/>
<feBlend mode="normal" in2="BackgroundImageFix" result="effect1_dropShadow_365_487"/>
<feBlend mode="normal" in="SourceGraphic" in2="effect1_dropShadow_365_487" result="shape"/>
</filter>
<clipPath id="clip0_365_487">
<rect width="50" height="50" fill="white" transform="translate(4)"/>
</clipPath>
</defs>
</svg>
