<svg width="50" height="50" viewBox="0 0 50 50" fill="none" xmlns="http://www.w3.org/2000/svg">
<path d="M25 0C38.805 0 50 11.195 50 25C50 38.805 38.805 50 25 50C11.195 50 0 38.805 0 25C0 11.195 11.195 0 25 0Z" fill="#1DA1F2"/>
<path d="M19.1998 37.7001C30.9898 37.7001 37.4448 27.9301 37.4448 19.4551C37.4448 19.1801 37.4448 18.9001 37.4248 18.6251C38.6798 17.7151 39.7648 16.5951 40.6248 15.3051C39.4548 15.8251 38.2148 16.1651 36.9448 16.3151C38.2848 15.5151 39.2848 14.2551 39.7648 12.7701C38.5048 13.5151 37.1298 14.0451 35.6948 14.3251C33.2648 11.7451 29.2048 11.6201 26.6248 14.0451C24.9598 15.6101 24.2548 17.9451 24.7698 20.1701C19.6148 19.9101 14.8098 17.4751 11.5548 13.4701C9.85477 16.4001 10.7198 20.1451 13.5398 22.0301C12.5198 22.0001 11.5198 21.7251 10.6298 21.2301C10.6298 21.2551 10.6298 21.2851 10.6298 21.3101C10.6298 24.3601 12.7798 26.9901 15.7748 27.5951C14.8298 27.8501 13.8398 27.8901 12.8798 27.7051C13.7198 30.3151 16.1248 32.1051 18.8698 32.1601C16.5998 33.9451 13.7948 34.9151 10.9098 34.9101C10.3998 34.9101 9.88977 34.8801 9.38477 34.8151C12.3048 36.7001 15.7198 37.7001 19.1998 37.6951" fill="white"/>
</svg>
