<svg width="46" height="26" viewBox="0 0 46 26" fill="none" xmlns="http://www.w3.org/2000/svg">
<path d="M25.2051 12.7988C30.6873 12.7537 36.1695 12.7175 41.6518 12.6566C42.7445 12.6442 43.8387 12.557 44.9272 12.4484C45.1072 12.4285 45.2772 12.3538 45.4146 12.2342C45.5523 12.1146 45.6513 11.9556 45.6985 11.7779C45.7878 11.4935 45.4771 11.0901 45.106 11.0307C44.7462 10.9733 44.388 10.8841 44.0264 10.8619C41.7163 10.7197 39.4066 10.5184 37.0944 10.476C32.3442 10.3892 27.5926 10.3673 22.8413 10.3618C18.3336 10.3565 13.8257 10.4136 9.3179 10.4244C8.59412 10.4262 7.86991 10.3335 7.14731 10.2679C7.09936 10.2559 7.05516 10.2318 7.01876 10.1979C6.98235 10.1641 6.9549 10.1214 6.93897 10.0739C6.92596 9.96057 6.95899 9.76919 7.03316 9.72855C8.41837 8.96347 9.78658 8.15858 11.211 7.4758C14.5246 5.88736 17.6332 3.93953 20.7395 1.98521C21.25 1.66402 21.785 1.33776 21.991 0.700474C22.0283 0.584474 22.0867 0.385794 22.0392 0.346992C21.8687 0.185567 21.6616 0.0694859 21.4363 0.00913219C21.1964 -0.019622 20.9533 0.019838 20.7341 0.123108C19.9579 0.480452 19.1873 0.853246 18.4321 1.25386C13.0337 4.1171 7.64618 6.99737 2.2449 9.85289C0.207467 10.9296 -0.760672 11.9738 1.68504 14.3411C2.38964 15.0235 3.10245 15.7049 3.86864 16.3117C7.42203 19.1288 10.9884 21.9286 14.5678 24.7112C15.06 25.0701 15.5789 25.3893 16.12 25.6661C16.4729 25.8607 16.8262 25.7451 17.1309 25.5118C17.4662 25.2549 17.6744 24.5079 17.5588 24.1794C17.3019 23.45 16.79 22.915 16.2404 22.4304C14.1239 20.5651 11.9962 18.7132 9.85717 16.8746C8.46715 15.6732 7.06253 14.4894 5.67473 13.2855C5.60613 13.226 5.60275 13.0418 5.63053 12.9309C5.64878 12.8828 5.67821 12.8401 5.71632 12.8061C5.75443 12.7723 5.80003 12.7483 5.84929 12.7362C6.57447 12.6879 7.30127 12.6263 8.02725 12.6302C13.7534 12.6609 19.4795 12.6992 25.2057 12.7451L25.2051 12.7988Z" fill="#ACACAC"/>
</svg>
