<svg width="46" height="26" viewBox="0 0 46 26" fill="none" xmlns="http://www.w3.org/2000/svg">
<g clip-path="url(#clip0_4075_991)">
<path d="M20.7949 13.2012C15.3127 13.2463 9.83047 13.2825 4.34824 13.3434C3.25552 13.3558 2.16127 13.443 1.0728 13.5516C0.892761 13.5715 0.722775 13.6462 0.585384 13.7658C0.447689 13.8854 0.348682 14.0444 0.301464 14.2221C0.212208 14.5065 0.522934 14.9099 0.893978 14.9693C1.25375 15.0267 1.61201 15.1159 1.97361 15.1381C4.28366 15.2803 6.59341 15.4816 8.90559 15.524C13.6558 15.6108 18.4074 15.6327 23.1587 15.6382C27.6664 15.6435 32.1743 15.5864 36.6821 15.5756C37.4059 15.5738 38.1301 15.6665 38.8527 15.7321C38.9006 15.7441 38.9448 15.7682 38.9812 15.8021C39.0176 15.8359 39.0451 15.8786 39.061 15.9261C39.074 16.0394 39.041 16.2308 38.9668 16.2715C37.5816 17.0365 36.2134 17.8414 34.789 18.5242C31.4754 20.1126 28.3668 22.0605 25.2605 24.0148C24.75 24.336 24.215 24.6622 24.009 25.2995C23.9717 25.4155 23.9133 25.6142 23.9608 25.653C24.1313 25.8144 24.3384 25.9305 24.5637 25.9909C24.8036 26.0196 25.0467 25.9802 25.2659 25.8769C26.0421 25.5195 26.8127 25.1468 27.5679 24.7461C32.9663 21.8829 38.3538 19.0026 43.7551 16.1471C45.7925 15.0704 46.7607 14.0262 44.315 11.6589C43.6104 10.9765 42.8976 10.2951 42.1314 9.68831C38.578 6.87124 35.0116 4.07142 31.4322 1.2888C30.94 0.929905 30.4211 0.610662 29.88 0.333948C29.5271 0.139318 29.1738 0.254927 28.8691 0.488152C28.5338 0.74515 28.3256 1.49212 28.4412 1.82062C28.6981 2.54995 29.21 3.08503 29.7596 3.56956C31.8761 5.4349 34.0038 7.28684 36.1428 9.12538C37.5329 10.3268 38.9375 11.5106 40.3253 12.7145C40.3939 12.774 40.3973 12.9582 40.3695 13.0691C40.3512 13.1172 40.3218 13.1599 40.2837 13.1939C40.2456 13.2277 40.2 13.2517 40.1507 13.2638C39.4255 13.3121 38.6987 13.3737 37.9727 13.3698C32.2466 13.3391 26.5205 13.3008 20.7943 13.2549L20.7949 13.2012Z" fill="#2F76DE"/>
</g>
<defs>
<clipPath id="clip0_4075_991">
<rect width="46" height="26" fill="white" transform="matrix(-1 0 0 -1 46 26)"/>
</clipPath>
</defs>
</svg>
