<svg width="44" height="44" viewBox="0 0 44 44" fill="none" xmlns="http://www.w3.org/2000/svg">
<path d="M14.8241 2.39766C13.9991 2.77578 13.621 3.7125 13.9733 4.5375C14.1366 4.93282 14.4632 5.28516 14.7897 5.41407L15.039 5.51719V7.15V8.77422L15.3226 9.03204C15.4687 9.16953 15.8983 9.53047 16.2593 9.82266L16.9296 10.3555V11.6875V13.0195L16.2249 13.4922C14.996 14.3 13.389 16.0961 12.8819 17.2047L12.7788 17.4453H11.3952H10.003L9.45303 16.3195C9.14365 15.7008 8.82569 15.1594 8.74834 15.1164C8.671 15.0734 7.91475 15.0391 7.06397 15.0391H5.51709L5.41397 14.7898C5.096 14.0078 4.03897 13.6211 3.22256 13.9992C2.00225 14.5492 1.91631 16.225 3.06787 16.9383C3.5749 17.2563 4.33115 17.2305 4.82959 16.8867C5.02725 16.7406 5.28506 16.457 5.39678 16.2594L5.59444 15.8984H6.94366H8.29287L8.89444 17.0844L9.496 18.2617L10.9397 18.2875C11.7304 18.2961 12.3749 18.3219 12.3749 18.3391C12.3749 18.3477 12.2976 18.5797 12.2116 18.8461C12.014 19.4219 11.8077 20.4531 11.7304 21.2438L11.6702 21.8281H8.61084H5.54287L5.43115 21.5875C5.27647 21.2438 5.14756 21.1063 4.77803 20.8484C4.30537 20.5305 3.51475 20.5305 3.05069 20.8484C2.6124 21.1406 2.44053 21.3727 2.31162 21.8023C1.91631 23.2203 3.446 24.432 4.72647 23.7102C5.06162 23.5211 5.4999 22.9969 5.4999 22.7906C5.4999 22.7133 6.22178 22.6875 8.61944 22.7047L11.7304 22.7305L11.7562 23.0313C11.7991 23.6156 12.0569 24.7156 12.2976 25.4117C12.4351 25.7984 12.5468 26.1336 12.5468 26.1594C12.5468 26.1852 11.971 26.2109 11.2577 26.2109H9.97725L9.19522 27.1563L8.41319 28.1016H7.00381H5.59444L5.39678 27.7406C5.28506 27.543 5.02725 27.2594 4.82959 27.1133C4.51162 26.8898 4.37412 26.8555 3.91865 26.8555C3.48037 26.8555 3.31709 26.8984 3.0335 27.0875C1.90772 27.8266 2.01084 29.4594 3.22256 30.0008C4.03897 30.3789 5.096 29.9922 5.41397 29.2102L5.51709 28.9609H7.03819C7.87178 28.9609 8.62803 28.9352 8.72256 28.9094C8.82569 28.8836 9.22959 28.4625 9.62491 27.9727L10.3554 27.0703H11.6874H13.0194L13.4921 27.775C14.2999 29.0039 16.096 30.6109 17.2132 31.118L17.4452 31.2211V32.6047V33.9969L16.3194 34.5469C15.7007 34.8563 15.1593 35.1742 15.1163 35.2516C15.0733 35.3289 15.039 36.0852 15.039 36.9359V38.4828L14.7897 38.5859C14.0077 38.9039 13.621 39.9609 13.9991 40.7773C14.5491 41.9977 16.2249 42.0836 16.9382 40.932C17.2562 40.425 17.2304 39.6688 16.8866 39.1703C16.7405 38.9727 16.4569 38.7148 16.2593 38.6031L15.8983 38.4055V37.0563V35.707L17.0843 35.1055L18.2616 34.5039L18.2874 33.0602C18.296 32.2695 18.3218 31.625 18.339 31.625C18.3476 31.625 18.5796 31.7023 18.846 31.7883C19.4218 31.9859 20.453 32.1922 21.2522 32.2695L21.828 32.3297V35.3891V38.457L21.596 38.5688C21.2437 38.7234 21.1062 38.8523 20.8483 39.2219C20.5218 39.7031 20.5304 40.468 20.8569 40.975C21.1233 41.3875 21.7765 41.7656 22.2147 41.7656C23.5554 41.7656 24.3546 40.3305 23.6585 39.2047C23.5038 38.9469 23.289 38.7492 23.0569 38.6375L22.696 38.457L22.7132 35.3633L22.7304 32.2695L23.0312 32.2438C23.6155 32.2008 24.7155 31.943 25.4116 31.7023C25.7983 31.5648 26.1335 31.4531 26.1593 31.4531C26.1851 31.4531 26.2108 32.0289 26.2108 32.7422V34.0227L27.1562 34.8047L28.1015 35.5867V36.9961V38.4055L27.7405 38.6031C27.5429 38.7148 27.2593 38.9727 27.1132 39.1703C26.7694 39.6688 26.7437 40.425 27.0616 40.932C27.7749 42.0836 29.4507 41.9977 30.0007 40.7773C30.3788 39.9609 29.9921 38.9039 29.2101 38.5859L28.9608 38.4828V36.9617C28.9608 36.1281 28.9351 35.3719 28.9093 35.2773C28.8835 35.1828 28.4624 34.7789 27.9726 34.375L27.0788 33.6445V32.3039L27.0702 30.9633L27.5687 30.6539C28.7976 29.8891 30.078 28.557 30.8257 27.268L31.2382 26.5547H32.6132H33.9968L34.5468 27.6805C34.8562 28.2992 35.1741 28.8406 35.2515 28.8836C35.3288 28.9266 36.0851 28.9609 36.9358 28.9609H38.4827L38.5858 29.2102C38.9038 29.9922 39.9608 30.3789 40.7772 30.0008C41.9976 29.4508 42.0835 27.775 40.9319 27.0617C40.4249 26.7438 39.6687 26.7695 39.1702 27.1133C38.9726 27.2594 38.7147 27.543 38.603 27.7406L38.4054 28.1016H37.0562H35.7069L35.1054 26.9156L34.5038 25.7383L33.0687 25.7125C32.2694 25.7039 31.6249 25.6781 31.6249 25.6609C31.6249 25.6523 31.7022 25.4203 31.7882 25.1539C31.9858 24.5781 32.1921 23.5469 32.2694 22.7477L32.3296 22.1719H35.4062H38.4827L38.5343 22.3609C38.603 22.6273 38.8351 22.8852 39.2304 23.1516C39.703 23.4781 40.4679 23.4695 40.9749 23.143C41.3874 22.8766 41.7655 22.2234 41.7655 21.7852C41.7655 20.4961 40.3819 19.6711 39.2733 20.2898C38.9382 20.4789 38.4999 21.0031 38.4999 21.2094C38.4999 21.2867 37.778 21.3125 35.389 21.2953L32.2694 21.2695L32.2437 20.9688C32.2007 20.3844 31.9429 19.2844 31.7022 18.5883C31.5647 18.2016 31.453 17.8664 31.453 17.8406C31.453 17.8148 32.0288 17.7891 32.7421 17.7891H34.0226L34.8046 16.8438L35.5866 15.8984H36.996H38.4054L38.603 16.2594C38.7147 16.457 38.9726 16.7406 39.1702 16.8867C39.6687 17.2305 40.4249 17.2563 40.9319 16.9383C42.0835 16.225 41.9976 14.5492 40.7772 13.9992C39.9608 13.6211 38.9038 14.0078 38.5858 14.7898L38.4827 15.0391H36.8499H35.2257L34.9679 15.3141C34.8304 15.4688 34.4694 15.8984 34.1772 16.2594L33.6444 16.9297H32.3124H30.9804L30.5077 16.2164C29.6999 14.9961 27.9038 13.3891 26.7952 12.882L26.5546 12.7789V11.3867V10.0031L27.6804 9.45313C28.2991 9.15235 28.8405 8.83438 28.8835 8.75703C28.9265 8.6711 28.9608 7.91485 28.9608 7.06406V5.51719L29.2101 5.41407C29.9921 5.0961 30.3788 4.03907 30.0007 3.22266C29.4507 2.00235 27.7749 1.91641 27.0616 3.06797C26.7437 3.575 26.7694 4.33125 27.1132 4.82969C27.2593 5.02735 27.5429 5.28516 27.7405 5.39688L28.1015 5.59454V6.94375V8.29297L26.9155 8.89454L25.7382 9.4961L25.7124 10.9313C25.7038 11.7305 25.678 12.375 25.6608 12.375C25.6522 12.375 25.4202 12.2977 25.1538 12.2117C24.578 12.0141 23.5468 11.8078 22.7562 11.7305L22.1718 11.6703V8.59375V5.51719L22.3694 5.46563C22.6272 5.39688 22.8851 5.16485 23.1515 4.76954C23.478 4.29688 23.4694 3.53204 23.1429 3.025C22.7991 2.50079 22.1546 2.19141 21.553 2.26016C20.0405 2.44063 19.5421 4.41719 20.7968 5.28516C20.9687 5.40547 21.1577 5.5 21.2093 5.5C21.2866 5.5 21.3124 6.22188 21.2952 8.61094L21.2694 11.7305L20.9687 11.7563C20.3843 11.7992 19.2843 12.057 18.5882 12.2977C18.2015 12.4352 17.8663 12.5469 17.8405 12.5469C17.8147 12.5469 17.789 11.9711 17.789 11.2578V9.96875L16.8437 9.18672L15.8983 8.40469V7.00391V5.59454L16.2593 5.39688C16.4569 5.28516 16.7405 5.02735 16.8866 4.82969C17.1101 4.50313 17.1444 4.37422 17.1444 3.91016C17.1444 3.4461 17.1101 3.31719 16.8866 2.99922C16.3968 2.30313 15.5546 2.0625 14.8241 2.39766ZM15.8897 3.22266C16.5858 3.575 16.371 4.59766 15.5804 4.70078C15.2624 4.74375 15.1851 4.71797 14.953 4.48594C14.6007 4.125 14.5921 3.69532 14.9444 3.34297C15.228 3.06797 15.5202 3.025 15.8897 3.22266ZM22.2491 3.31719C22.4726 3.49766 22.5155 3.60078 22.5155 3.91016C22.5155 4.21954 22.4726 4.32266 22.2491 4.50313C21.9054 4.79531 21.5616 4.79531 21.2179 4.48594C21.003 4.29688 20.9515 4.17657 20.9515 3.91016C20.9515 3.64375 21.003 3.52344 21.2179 3.33438C21.5616 3.025 21.9054 3.025 22.2491 3.31719ZM29.0554 3.34297C29.4077 3.69532 29.3991 4.125 29.0468 4.48594C28.8147 4.71797 28.7374 4.74375 28.4194 4.70078C27.3796 4.56329 27.4999 3.11094 28.5569 3.09375C28.7202 3.09375 28.8921 3.17969 29.0554 3.34297ZM23.1171 12.6328C24.2171 12.7789 25.0937 13.0453 26.1679 13.5781C28.1702 14.5578 29.5366 15.95 30.5077 17.9781C32.2265 21.5875 31.496 25.8156 28.6515 28.6516C25.8155 31.4961 21.5874 32.2266 17.978 30.5078C15.9499 29.5367 14.5577 28.1703 13.578 26.168C12.5983 24.1828 12.3319 22.1633 12.7616 20.1008C13.3632 17.2648 15.1851 14.8758 17.746 13.5953C18.8116 13.0539 19.6366 12.8133 21.1405 12.5984C21.5788 12.5383 22.4897 12.5555 23.1171 12.6328ZM4.48584 14.9531C4.71787 15.1852 4.74365 15.2625 4.70069 15.5805C4.55459 16.6289 3.09365 16.4914 3.09365 15.4258C3.09365 15.2883 3.19678 15.0992 3.34287 14.9445C3.69522 14.5922 4.1249 14.6008 4.48584 14.9531ZM40.6569 14.9445C40.803 15.0992 40.9062 15.2883 40.9062 15.4258C40.9062 16.4914 39.4452 16.6289 39.2991 15.5805C39.2562 15.2625 39.2819 15.1852 39.514 14.9531C39.8749 14.6008 40.3046 14.5922 40.6569 14.9445ZM40.6913 21.2438C40.9663 21.5703 40.9663 21.9141 40.6827 22.2492C40.5023 22.4727 40.3991 22.5156 40.0897 22.5156C39.7804 22.5156 39.6772 22.4727 39.4968 22.2492C39.2132 21.9141 39.2132 21.5703 39.4882 21.2352C39.8405 20.8227 40.339 20.8227 40.6913 21.2438ZM4.50303 21.7508C4.79522 22.0945 4.79522 22.4383 4.48584 22.782C4.29678 22.9969 4.17647 23.0484 3.91006 23.0484C3.64365 23.0484 3.52334 22.9969 3.33428 22.782C3.0249 22.4383 3.0249 22.0945 3.31709 21.7508C3.49756 21.5273 3.60069 21.4844 3.91006 21.4844C4.21944 21.4844 4.32256 21.5273 4.50303 21.7508ZM4.30537 27.8008C4.77803 28.05 4.86397 28.6602 4.47725 29.0555C3.80694 29.7172 2.7585 28.9352 3.21397 28.1102C3.34287 27.8867 3.65225 27.6805 3.89287 27.6719C3.97881 27.6719 4.15928 27.732 4.30537 27.8008ZM40.4679 27.7922C40.9491 28.0414 41.0437 28.6688 40.6569 29.0555C40.3046 29.3992 39.8749 29.3992 39.5226 29.0555C39.1444 28.6688 39.2132 28.0586 39.6772 27.8094C39.978 27.6461 40.1671 27.6375 40.4679 27.7922ZM16.096 39.5398C16.4397 39.9609 16.3366 40.5453 15.8897 40.7773C15.5202 40.975 15.228 40.932 14.9444 40.657C14.5921 40.3047 14.6007 39.875 14.953 39.5141C15.1851 39.282 15.2624 39.2563 15.5804 39.2992C15.8038 39.3336 15.9929 39.4195 16.096 39.5398ZM22.7819 39.5141C22.9968 39.7031 23.0483 39.8234 23.0483 40.0898C23.0483 40.3563 22.9968 40.4766 22.7819 40.6656C22.4382 40.975 22.0944 40.975 21.7507 40.6828C21.5272 40.5023 21.4843 40.3992 21.4843 40.0898C21.4843 39.7805 21.5272 39.6773 21.7507 39.4969C22.0944 39.2047 22.4382 39.2047 22.7819 39.5141ZM29.0554 39.5227C29.2358 39.7117 29.3046 39.8578 29.3046 40.0898C29.3046 40.468 28.9179 40.9063 28.5827 40.9063C28.2476 40.9063 27.9296 40.7258 27.7921 40.468C27.6374 40.1586 27.6374 40.0125 27.8093 39.6945C28.0499 39.2133 28.6601 39.1359 29.0554 39.5227Z" fill="white"/>
<path d="M20.1265 16.1734C20.0663 16.2336 20.0233 16.5 20.0233 16.7664V17.2562L19.1554 17.2906C18.4163 17.3078 18.2702 17.3422 18.1671 17.4797C17.9866 17.7289 17.9866 26.2711 18.1671 26.5203C18.2702 26.6578 18.4163 26.6922 19.1554 26.7094L20.0233 26.7437V27.2336C20.0233 27.7578 20.1179 27.9297 20.4187 27.9297C20.7022 27.9297 20.8827 27.6117 20.8827 27.1391V26.7266H21.5702H22.2577V27.1906C22.2577 27.7062 22.3952 27.9297 22.7218 27.9297C23.0226 27.9297 23.1171 27.7578 23.1171 27.2336C23.1171 26.7008 23.1772 26.6492 23.7616 26.6406C24.1397 26.632 24.6812 26.357 25.1194 25.9617C26.1679 24.9992 26.1851 23.3492 25.1624 22.3266L24.8358 22L25.1624 21.6734C26.1593 20.6766 26.1679 19.1211 25.1968 18.0984C24.8358 17.7203 24.1397 17.3594 23.7616 17.3594C23.1772 17.3508 23.1171 17.2992 23.1171 16.7664C23.1171 16.2422 23.0226 16.0703 22.7218 16.0703C22.3952 16.0703 22.2577 16.2937 22.2577 16.8094V17.2734H21.5702H20.8827V16.8609C20.8827 16.6289 20.8226 16.3711 20.7452 16.2594C20.5991 16.0531 20.2897 16.0102 20.1265 16.1734ZM23.6413 18.2188C24.8444 18.4508 25.4202 19.6883 24.8101 20.7281C24.5351 21.2008 24.1397 21.4672 23.5983 21.5359C23.1601 21.5961 22.9452 21.7508 22.9452 22C22.9452 22.2492 23.1601 22.4039 23.5983 22.4641C24.1397 22.5328 24.5351 22.7992 24.8101 23.2719C25.4288 24.3203 24.8444 25.5578 23.6241 25.7812C23.3577 25.8328 22.2233 25.8586 21.046 25.85L18.9491 25.8242L18.9233 22.0859C18.9147 20.032 18.9233 18.2961 18.9491 18.2359C19.0007 18.107 22.9452 18.0898 23.6413 18.2188Z" fill="white"/>
<rect x="17" y="16" width="10" height="12" fill="#2F77E0"/>
<path d="M24.326 21.502C25.034 21.634 25.634 21.994 26.126 22.582C26.618 23.17 26.864 23.854 26.864 24.634C26.864 25.27 26.702 25.846 26.378 26.362C26.066 26.866 25.604 27.268 24.992 27.568C24.38 27.856 23.648 28 22.796 28H18.44V15.418H22.67C23.942 15.418 24.908 15.712 25.568 16.3C26.24 16.888 26.576 17.65 26.576 18.586C26.576 19.366 26.366 20.002 25.946 20.494C25.526 20.974 24.986 21.31 24.326 21.502ZM19.7 20.98H22.634C23.486 20.98 24.14 20.782 24.596 20.386C25.064 19.978 25.298 19.42 25.298 18.712C25.298 18.016 25.064 17.47 24.596 17.074C24.14 16.678 23.468 16.48 22.58 16.48H19.7V20.98ZM22.706 26.938C23.618 26.938 24.326 26.722 24.83 26.29C25.346 25.858 25.604 25.264 25.604 24.508C25.604 23.752 25.334 23.152 24.794 22.708C24.266 22.252 23.552 22.024 22.652 22.024H19.7V26.938H22.706Z" fill="white"/>
</svg>
