<svg width="44" height="44" viewBox="0 0 44 44" fill="none" xmlns="http://www.w3.org/2000/svg">
<path d="M21.3125 2.37188C21.1922 2.38906 20.8055 2.44922 20.4531 2.50078C18.3477 2.80156 15.9414 3.72109 14.0594 4.93281C11.5758 6.53984 9.41016 9.01484 8.1211 11.7047C6.56563 14.9703 6.12735 18.3992 6.79766 21.9914L6.98672 22.9625L6.69454 23.1945C5.32813 24.2516 4.22813 25.8758 3.74688 27.5258C3.1711 29.4937 3.3086 31.5219 4.12501 33.2234C4.78672 34.5984 5.53438 35.4492 8.79141 38.5344C9.6336 39.3336 10.6391 40.3648 11.0172 40.8375C11.5328 41.4562 11.7648 41.6797 11.9109 41.6797C12.057 41.6797 12.3234 41.4305 12.9336 40.7C13.3805 40.1586 14.2828 39.2219 14.9359 38.6203C16.3367 37.3055 18.2875 35.3719 18.5367 35.0453L18.7172 34.8047L19.7313 35.0281C21.1234 35.3289 23.7789 35.4062 25.2828 35.2C31.8484 34.2805 37.3656 29.382 39.0156 22.9969C39.6602 20.4961 39.7031 17.5914 39.1445 15.1508C38.4828 12.2805 36.9961 9.53906 34.9422 7.40781C32.3125 4.6664 28.9008 2.93047 25.2141 2.44922C24.3289 2.3375 21.9055 2.28594 21.3125 2.37188ZM22.6016 7.72578V12.2633L22.1547 12.2289C20.1781 12.0914 18.5109 11.7047 16.7836 10.9828L16.1734 10.725L16.2766 10.3641C16.6633 9.15234 17.5141 7.36484 18.2188 6.30781C18.8031 5.43984 20.0922 4.15078 20.7453 3.78125C21.2781 3.48047 22.0859 3.18828 22.4125 3.18828L22.6016 3.17969V7.72578ZM24.432 3.38594C26.0992 3.9789 27.6547 5.64609 28.8406 8.1125C29.3047 9.08359 29.8203 10.3984 29.8203 10.6133C29.8203 10.768 29.2789 11.0086 27.8867 11.4727C26.7867 11.8422 25.2227 12.1516 24.0453 12.2289L23.4609 12.2719V7.72578V3.17969H23.6586C23.7617 3.17969 24.1141 3.27422 24.432 3.38594ZM18.7773 4.31406C17.5484 5.56875 16.4398 7.4164 15.718 9.42734C15.5633 9.86562 15.3828 10.2266 15.3227 10.2266C14.9961 10.2266 12.0227 7.94922 12.0398 7.70859C12.0484 7.5625 13.1141 6.64297 14.0508 5.97266C15.3742 5.02734 17.2992 4.11641 18.8547 3.69531C19.1898 3.60938 19.4906 3.53203 19.5164 3.53203C19.5422 3.52344 19.2156 3.88437 18.7773 4.31406ZM27.9727 3.96172C30.1125 4.6664 32.45 6.05859 33.7734 7.43359L34.0742 7.74297L33.6445 8.12969C33.0516 8.6539 31.7711 9.61641 31.1523 9.99453L30.6453 10.3125L30.3617 9.51328C29.6055 7.43359 28.4539 5.5 27.2336 4.27969C26.3828 3.42031 26.3484 3.4375 27.9727 3.96172ZM13.8445 10.2953C14.3945 10.6562 14.9102 11 14.9961 11.043C15.1422 11.1289 15.1336 11.1891 14.9274 12.0742C14.5234 13.7844 14.3086 15.3656 14.2141 17.2305L14.1539 18.3906H10.7336H7.31329L7.35626 17.8922C7.63985 14.4289 8.86876 11.318 10.9055 8.86875L11.3523 8.33594L12.1 8.98906C12.5125 9.3414 13.2945 9.93437 13.8445 10.2953ZM35.5438 9.38437C37.2539 11.5844 38.4656 14.7641 38.6461 17.5055L38.6977 18.3906H35.3031H31.9086L31.8484 17.3336C31.7453 15.4602 31.4617 13.4492 31.1008 12.0141C31.0148 11.6531 30.9375 11.3008 30.9375 11.232C30.9375 11.1633 31.2039 10.9484 31.5305 10.7508C32.2781 10.3125 33.3008 9.54766 34.0742 8.86875L34.6758 8.33594L34.9164 8.61094C35.0539 8.76562 35.3375 9.11797 35.5438 9.38437ZM16.5344 11.7734C17.9352 12.4094 20.1438 12.9508 21.7164 13.0367L22.6016 13.0883V15.7437V18.3906H18.8203H15.0391V17.7633C15.0391 16.3797 15.3313 14.1023 15.7352 12.3406C15.8383 11.8852 15.9328 11.5156 15.9414 11.5156C15.95 11.5156 16.2164 11.6359 16.5344 11.7734ZM30.3617 12.5641C30.757 14.3859 31.0234 16.4914 31.0234 17.8492V18.3906H27.2422H23.4609V15.7437V13.0883L24.3461 13.0367C25.9188 12.9508 28.6258 12.2719 29.7258 11.6875C29.8977 11.593 30.0609 11.5242 30.0867 11.5156C30.1125 11.5156 30.2414 11.9883 30.3617 12.5641ZM14.1797 19.7828C14.1797 20.0836 14.2055 20.6422 14.2313 21.0203L14.2914 21.725L13.7414 21.5875C13.3719 21.5016 12.7789 21.45 11.9453 21.45C10.5188 21.45 9.67657 21.6133 8.48204 22.1289C8.10391 22.2922 7.77735 22.4125 7.75157 22.3953C7.69141 22.3266 7.40782 20.5047 7.36485 19.8687L7.33047 19.25H10.7508H14.1797V19.7828ZM22.6016 21.9141V24.5781H22.1891C21.6563 24.5781 20.5133 24.7156 19.6109 24.8961L18.8977 25.0336L18.7602 24.8273C18.193 24.0023 16.5516 22.6531 15.5805 22.2234C15.3828 22.1375 15.2023 22.0086 15.168 21.9398C15.1422 21.8625 15.0992 21.2352 15.0648 20.5305L15.0133 19.25H18.8031H22.6016V21.9141ZM31.0234 19.7398C31.0234 20.4273 30.8688 22.1289 30.7141 23.2031C30.6023 23.9594 30.1813 26.0391 30.1297 26.0992C30.1211 26.1078 29.6914 25.9531 29.1672 25.7383C27.6203 25.1109 25.9188 24.7156 24.3031 24.6039L23.4609 24.5523V21.8969V19.25H27.2422H31.0234V19.7398ZM38.6375 20.0406C38.4141 23.2805 37.0648 26.5289 34.9078 29.0469L34.65 29.3477L34.1 28.8234C33.4297 28.1961 32.6648 27.6203 31.6422 26.9844L30.8859 26.5031L30.9977 26.082C31.4102 24.4836 31.7281 22.3094 31.8484 20.2555L31.9086 19.25H35.3031H38.6977L38.6375 20.0406ZM13.1484 22.3523C16.0703 22.8164 18.5625 25.0852 19.3445 27.9812C19.4906 28.5141 19.5336 28.918 19.5422 29.8633C19.5508 31.2469 19.4391 31.7711 18.9148 32.8711C18.4078 33.9281 17.6602 34.8391 15.9586 36.4547C13.9219 38.3969 12.9422 39.368 12.3664 40.0297L11.9023 40.5625L11.3523 39.918C11.0516 39.557 10.1836 38.6805 9.41876 37.9586C6.03282 34.7703 5.19063 33.7734 4.65782 32.2867C3.33438 28.6258 5.25938 24.3891 8.97188 22.8336C10.175 22.3266 11.825 22.1375 13.1484 22.3523ZM22.6016 29.9492V34.4609H22.1117C21.3039 34.4609 19.2672 34.1258 19.3188 34.0055C19.3359 33.9797 19.4992 33.6187 19.6883 33.2234C20.2469 32.0203 20.393 31.35 20.393 29.9062C20.393 28.8492 20.3586 28.5398 20.1781 27.8438C20.0578 27.3969 19.8344 26.7609 19.6883 26.4344C19.5422 26.1078 19.4305 25.8328 19.4391 25.8156C19.4734 25.7898 20.7625 25.5406 21.0977 25.4977C21.2438 25.4805 21.6391 25.4547 21.9828 25.4461L22.6016 25.4375V29.9492ZM25.068 25.5234C26.9328 25.7727 29.8203 26.6922 29.8203 27.0445C29.8203 27.268 29.2016 28.8234 28.7719 29.6914C27.6289 31.9773 26.1766 33.5586 24.6641 34.1773C24.3977 34.2805 24.0195 34.3922 23.8219 34.4266L23.4609 34.4867V29.9578V25.4375H23.925C24.1828 25.4375 24.6984 25.4805 25.068 25.5234ZM31.4789 27.8781C32.3125 28.4195 33.0086 28.9609 33.6102 29.5195L34.0484 29.9234L33.7133 30.2672C32.4586 31.5734 29.9922 33.043 27.9297 33.7133C26.357 34.2289 26.3742 34.2375 27.2336 33.3695C27.6461 32.957 28.2391 32.2266 28.557 31.7453C29.1672 30.8258 29.9836 29.1758 30.3789 28.0758C30.5078 27.7148 30.6539 27.4141 30.6969 27.4141C30.7484 27.4141 31.1008 27.6203 31.4789 27.8781Z" fill="white"/>
<path d="M10.622 23.7703C8.26731 24.2945 6.38528 26.1078 5.78372 28.4453C5.56887 29.2875 5.58606 30.714 5.83528 31.582C6.45403 33.782 8.17278 35.4664 10.3986 36.0593C11.2322 36.2828 12.6587 36.2656 13.5267 36.0164C16.4314 35.2 18.3822 32.5273 18.1931 29.6054C18.1243 28.6172 17.9611 27.9812 17.5142 27.0703C17.2134 26.4687 17.0072 26.1937 16.3368 25.5148C15.6579 24.8445 15.3829 24.6382 14.7814 24.3375C14.3775 24.1398 13.8189 23.9164 13.5353 23.8476C12.7876 23.6414 11.3525 23.607 10.622 23.7703ZM13.5782 24.7414C15.2111 25.2656 16.6032 26.6664 17.1275 28.3164C17.3853 29.1242 17.3939 30.7398 17.1532 31.4531C16.6462 32.9656 15.615 34.1773 14.3431 34.7875C13.4064 35.2343 12.8564 35.3632 11.8595 35.3547C9.28997 35.3547 7.10716 33.55 6.58294 30.9976C6.32512 29.7515 6.47122 28.7031 7.05559 27.5C7.72591 26.1336 9.12669 24.9992 10.6134 24.6297C11.3439 24.4406 12.8392 24.5007 13.5782 24.7414Z" fill="white"/>
<path d="M10.7594 25.489C9.94304 25.7039 9.35007 26.0562 8.71413 26.6836C6.84929 28.5226 6.8321 31.3328 8.67975 33.1718C10.5016 35.0023 13.3118 35.0023 15.1337 33.1804C16.0446 32.2695 16.5001 31.1781 16.5001 29.9062C16.4915 27.8008 15.1079 26.0218 13.0196 25.4718C12.4696 25.3172 11.3438 25.3258 10.7594 25.489ZM13.0196 26.3484C13.9821 26.6062 14.9188 27.457 15.4001 28.4883C15.5633 28.8578 15.5977 29.064 15.5977 29.9062C15.5977 30.8429 15.5805 30.9289 15.3227 31.4789C14.0938 34.0656 10.6391 34.4523 8.92038 32.1836C8.37038 31.4617 8.21569 30.9461 8.2071 29.8976C8.2071 29.0297 8.21569 28.9695 8.52507 28.3508C9.38444 26.6062 11.129 25.8242 13.0196 26.3484Z" fill="white"/>
<path d="M11.5156 27.3281C11.5156 27.6719 11.4898 27.7578 11.3781 27.7578C11.1203 27.7578 10.6734 28.1016 10.5273 28.4195C10.4242 28.6344 10.3898 28.8578 10.4156 29.15C10.4758 29.7773 10.7594 30.0094 11.8164 30.3617C12.6328 30.6195 12.6758 30.6539 12.7016 30.8945C12.7703 31.4359 11.9797 31.5477 11.1805 31.1008L10.7078 30.8344L10.4672 31.118C10.3383 31.2812 10.2266 31.4359 10.2266 31.4789C10.2266 31.582 11.0172 32.0547 11.2836 32.1148C11.4984 32.1578 11.5156 32.1922 11.5156 32.5789V33H11.9453H12.375V32.6219C12.375 32.2523 12.3922 32.2352 12.7016 32.1406C13.6898 31.8227 13.9906 30.6281 13.243 29.9578C13.1398 29.8633 12.7102 29.6742 12.2719 29.5281C11.3867 29.2273 11.1719 29.0383 11.3953 28.7203C11.5758 28.4625 12.2805 28.4539 12.7531 28.7117L13.0883 28.8922L13.2516 28.6859C13.6125 28.2391 13.6039 28.2219 13.1227 27.9898C12.882 27.8609 12.607 27.7492 12.5297 27.7234C12.4094 27.6891 12.375 27.5859 12.375 27.2852V26.8984H11.9453H11.5156V27.3281Z" fill="white"/>
<path d="M34.8391 3.27422C34.65 3.36875 34.4609 3.68672 34.4609 3.91875C34.4609 4.125 34.8648 4.46875 35.1055 4.46875C35.3891 4.46875 35.75 4.11641 35.75 3.84141C35.75 3.40312 35.2258 3.08516 34.8391 3.27422Z" fill="white"/>
<path d="M4.62347 3.72108C3.81566 3.95311 3.23128 4.49452 2.91332 5.32811C2.57816 6.21327 2.76722 7.11561 3.44613 7.85467C4.01332 8.48202 4.59769 8.71405 5.45707 8.66248C6.41097 8.60233 7.15004 8.0953 7.57972 7.22733C7.85472 6.66873 7.85472 5.6117 7.57972 5.09608C6.98675 3.9703 5.76644 3.40311 4.62347 3.72108ZM5.91254 4.59764C7.15863 5.12186 7.3305 6.8578 6.20472 7.57108C5.66332 7.91483 4.92425 7.92342 4.41722 7.59686C3.92738 7.27889 3.66957 6.86639 3.6266 6.32498C3.52347 5.0617 4.76957 4.12498 5.91254 4.59764Z" fill="white"/>
<path d="M39.8148 10.0977C39.4023 10.3899 39.5484 11.1032 40.0383 11.2149C40.6742 11.3524 41.0695 10.6391 40.6055 10.1836C40.3734 9.943 40.0812 9.90862 39.8148 10.0977Z" fill="white"/>
<path d="M4.22813 11.4554C3.85001 11.8508 4.09923 12.4867 4.63204 12.4867C5.19923 12.4867 5.47423 11.8336 5.07032 11.4297C4.83829 11.1976 4.46017 11.2062 4.22813 11.4554Z" fill="white"/>
<path d="M36.1367 33.4554C35.1656 33.9195 34.7101 34.9164 35.0109 35.9304C35.3546 37.125 36.5578 37.7437 37.7437 37.3312C39.1531 36.8585 39.5656 34.9421 38.5 33.8765C38.0961 33.4726 37.7523 33.3179 37.125 33.2835C36.6609 33.2578 36.489 33.2835 36.1367 33.4554ZM37.6062 34.2546C38.0015 34.4437 38.2593 34.882 38.2593 35.3632C38.2593 36.6781 36.489 37.0906 35.9046 35.9218C35.3546 34.839 36.4976 33.7304 37.6062 34.2546Z" fill="white"/>
<path d="M20.7625 36.7899C20.5992 36.9188 20.5391 37.0477 20.5391 37.2539C20.5391 37.7868 21.2008 38.0961 21.5703 37.7266C21.8539 37.443 21.8281 37.0821 21.5187 36.7985C21.2523 36.5664 21.0547 36.5578 20.7625 36.7899Z" fill="white"/>
<path d="M31.2726 37.632C30.8429 37.9758 31.1265 38.7578 31.6851 38.7578C31.9601 38.7578 32.3125 38.3969 32.3125 38.1133C32.3125 37.8297 31.9601 37.4688 31.6851 37.4688C31.5648 37.4688 31.3843 37.5375 31.2726 37.632Z" fill="white"/>
<path d="M5.98988 38.4313C5.63753 38.7063 5.66332 39.2391 6.04144 39.4883C6.643 39.875 7.28753 39.0071 6.76332 38.5172C6.53988 38.311 6.20472 38.2766 5.98988 38.4313Z" fill="white"/>
</svg>
