<svg width="44" height="44" viewBox="0 0 44 44" fill="none" xmlns="http://www.w3.org/2000/svg">
<path d="M20.4273 1.38359C14.9789 2.01094 10.3898 5.76641 8.68828 10.9742C8.14688 12.6242 8.03516 13.4234 8.03516 15.5977C8.03516 18.0984 8.27578 19.4133 9.06641 21.2523C9.83984 23.0742 10.6562 24.2773 12.9078 26.9156C14.8328 29.1758 15.632 30.4477 15.9844 31.8313C16.1391 32.4586 16.1562 32.7852 16.1562 35.9562V39.4023L17.557 40.7859C18.6398 41.8602 19.0609 42.2211 19.4648 42.4187L19.9805 42.668H22H24.0195L24.5352 42.4187C24.9391 42.2211 25.3602 41.8602 26.4516 40.7859L27.8438 39.4023V35.9562C27.8438 32.8453 27.8609 32.45 28.007 31.8656C28.3594 30.482 29.0211 29.3906 30.6797 27.4141C33.6617 23.8734 34.5039 22.5844 35.2688 20.3844C35.8359 18.7516 35.9648 17.8492 35.9648 15.5547C35.9563 13.2945 35.8531 12.5812 35.2688 10.8367C33.2063 4.63203 26.9156 0.627342 20.4273 1.38359ZM24.5008 2.56953C29.6313 3.60938 33.6273 7.57109 34.7188 12.7016C34.9508 13.793 35.0453 16.225 34.8906 17.4109C34.5039 20.5648 33.4898 22.507 30.3359 26.2109C28.1617 28.7633 27.4398 29.9664 26.9328 31.857C26.9156 31.9344 26.6836 31.9688 26.168 31.9688H25.4375V30.3617C25.4375 28.3852 25.4719 28.4453 24.4234 28.4453C23.7359 28.4453 23.7016 28.4367 23.7445 28.2648C23.7703 28.1703 24.0711 26.8039 24.4148 25.2312L25.0336 22.3609L25.4031 22.6445C26.3914 23.4008 27.7664 23.2977 28.6773 22.4125C30.2586 20.8656 29.1758 18.1328 26.9758 18.1328C26.168 18.1328 25.6523 18.3391 25.1281 18.8633C24.793 19.1984 24.6469 19.4219 24.5523 19.7742C24.475 20.032 24.0195 22.0859 23.5383 24.3375L22.6531 28.4453H22H21.3469L20.4617 24.3375C19.9805 22.0859 19.525 20.032 19.4477 19.7742C19.2758 19.1641 18.6227 18.4852 18.0125 18.2789C16.2852 17.6859 14.5836 18.8547 14.575 20.625C14.5664 22.0086 15.6836 23.1344 17.0586 23.1344C17.7203 23.1344 18.1156 23.0141 18.5969 22.6445L18.9664 22.3609L19.5852 25.2312C19.9289 26.8039 20.2297 28.1703 20.2555 28.2648C20.2984 28.4367 20.2641 28.4453 19.5852 28.4453C18.5281 28.4453 18.5625 28.3852 18.5625 30.3531V31.9773L17.8234 31.9516L17.0844 31.9258L16.8953 31.2812C16.457 29.743 15.7352 28.6602 13.1398 25.5922C9.90859 21.768 8.92891 19.2672 9.04922 15.125C9.10078 13.3719 9.25547 12.4266 9.71953 11.1117C10.5187 8.83437 11.9539 6.75469 13.6898 5.34531C15.7953 3.63515 17.7891 2.79297 20.7539 2.37188C21.3555 2.28594 23.7102 2.40625 24.5008 2.56953ZM17.875 19.3531C18.3047 19.6453 18.4938 19.9633 18.5453 20.4359C18.5969 20.9945 18.4508 21.4156 18.0898 21.7336C17.4711 22.275 16.6977 22.2578 16.0789 21.6906C15.3227 21.0117 15.4602 19.8773 16.3625 19.3273C16.7492 19.0867 17.5055 19.1039 17.875 19.3531ZM27.5773 19.293C27.9211 19.4648 28.2477 19.8859 28.368 20.2812C28.6688 21.2867 27.5859 22.3609 26.5547 22.0859C26.1078 21.9656 25.6438 21.5617 25.5148 21.1664C25.1797 20.1523 25.85 19.1641 26.8727 19.1641C27.1305 19.1641 27.4484 19.2242 27.5773 19.293ZM24.4062 30.7227V31.9688H22H19.5938V30.7227V29.4766H22H24.4062V30.7227ZM26.8125 34.1602V35.3203H22H17.1875V34.1602V33H22H26.8125V34.1602ZM26.8125 37.5117V38.6719H22H17.1875V37.5117V36.3516H22H26.8125V37.5117ZM25.3516 40.4422C24.9477 40.8461 24.4492 41.2758 24.2344 41.4047L23.8477 41.6367H22H20.1523L19.7656 41.4047C19.5508 41.2758 19.0523 40.8461 18.6484 40.4422L17.918 39.7031H22H26.082L25.3516 40.4422Z" fill="white"/>
<path d="M21.6303 5.39687C21.5186 5.51719 21.4842 5.72344 21.4842 6.23906V6.91797L21.0631 7.07266C20.4702 7.27891 19.8944 7.87187 19.7225 8.43906C19.5678 8.96328 19.5678 9.04922 19.6881 9.47891C19.8686 10.1406 20.3413 10.5102 21.9139 11.2062C23.0827 11.7219 23.3233 11.9109 23.3233 12.3234C23.3233 12.9164 22.7303 13.4062 22.0171 13.4062C21.278 13.4062 20.7624 13.0023 20.6592 12.3578C20.5991 12.0312 20.3671 11.7734 20.1264 11.7734C20.0663 11.7734 19.9202 11.868 19.7999 11.9883C19.6108 12.1859 19.585 12.2547 19.6366 12.5727C19.7655 13.3461 20.3585 14.0508 21.0889 14.2914L21.4413 14.4117L21.4842 15.1594C21.5186 15.7781 21.5616 15.9328 21.6905 16.0359C21.785 16.1047 21.9225 16.1562 21.9999 16.1562C22.0772 16.1562 22.2147 16.1047 22.3092 16.0359C22.4381 15.9328 22.4811 15.7781 22.5155 15.1594L22.5585 14.4117L22.9108 14.2914C23.1085 14.2227 23.4264 14.0336 23.6241 13.8703C24.1225 13.4406 24.346 12.968 24.3546 12.332C24.3717 11.3867 23.9678 10.9914 22.1546 10.1836C20.6592 9.50469 20.3928 9.16094 20.8483 8.47344C21.0202 8.20703 21.6217 7.90625 21.9827 7.90625C22.6186 7.90625 23.246 8.37031 23.3405 8.92891C23.4436 9.52187 23.8733 9.72813 24.2428 9.35859C24.3889 9.2125 24.4147 9.11797 24.3717 8.82578C24.2428 8.03516 23.6671 7.33047 22.9366 7.07266L22.5155 6.91797V6.22188C22.5155 5.65469 22.4897 5.5 22.3608 5.38828C22.1546 5.19922 21.8022 5.20781 21.6303 5.39687Z" fill="white"/>
<path d="M13.0624 10.3126C12.8476 10.5274 12.839 10.8454 13.0452 11.0258C13.2858 11.2493 14.7812 11.2321 14.9788 11.0172C15.1765 10.8024 15.1593 10.5188 14.953 10.3126C14.8069 10.1665 14.6694 10.1407 14.0077 10.1407C13.346 10.1407 13.2085 10.1665 13.0624 10.3126Z" fill="white"/>
<path d="M15.9843 10.3126C15.7694 10.5274 15.7608 10.8454 15.9671 11.0258C16.2077 11.2493 17.703 11.2321 17.9007 11.0172C18.0983 10.8024 18.0812 10.5188 17.8749 10.3126C17.7288 10.1665 17.5913 10.1407 16.9296 10.1407C16.2679 10.1407 16.1304 10.1665 15.9843 10.3126Z" fill="white"/>
<path d="M26.1249 10.3126C25.9101 10.5274 25.9015 10.8454 26.1077 11.0258C26.3483 11.2493 27.8437 11.2321 28.0413 11.0172C28.239 10.8024 28.2218 10.5188 28.0155 10.3126C27.8694 10.1665 27.7319 10.1407 27.0702 10.1407C26.4085 10.1407 26.271 10.1665 26.1249 10.3126Z" fill="white"/>
<path d="M29.0468 10.3126C28.8319 10.5274 28.8233 10.8454 29.0296 11.0258C29.2702 11.2493 30.7655 11.2321 30.9632 11.0172C31.1608 10.8024 31.1437 10.5188 30.9374 10.3126C30.7913 10.1665 30.6538 10.1407 29.9921 10.1407C29.3304 10.1407 29.1929 10.1665 29.0468 10.3126Z" fill="white"/>
<path d="M6.29055 35.4578C6.05852 35.6211 6.04133 36.0078 6.25617 36.2055C6.38508 36.3172 6.59133 36.3516 7.20149 36.3516C7.88039 36.3516 8.01789 36.3258 8.16399 36.1797C8.25852 36.0852 8.33586 35.9305 8.33586 35.8359C8.33586 35.7414 8.25852 35.5867 8.16399 35.4922C8.01789 35.3461 7.88039 35.3203 7.23586 35.3203C6.69445 35.3203 6.42805 35.3547 6.29055 35.4578Z" fill="white"/>
<path d="M9.21242 35.4578C8.98039 35.6211 8.9632 36.0078 9.17805 36.2055C9.30695 36.3172 9.5132 36.3516 10.1234 36.3516C10.8023 36.3516 10.9398 36.3258 11.0859 36.1797C11.1804 36.0852 11.2577 35.9305 11.2577 35.8359C11.2577 35.7414 11.1804 35.5867 11.0859 35.4922C10.9398 35.3461 10.8023 35.3203 10.1577 35.3203C9.61633 35.3203 9.34992 35.3547 9.21242 35.4578Z" fill="white"/>
<path d="M12.1343 35.4579C11.9023 35.6211 11.8851 36.0079 12.0999 36.2055C12.3405 36.429 13.8359 36.4118 14.0335 36.1969C14.2312 35.9821 14.214 35.6985 14.0077 35.4922C13.8616 35.3461 13.7241 35.3204 13.0796 35.3204C12.5382 35.3204 12.2718 35.3547 12.1343 35.4579Z" fill="white"/>
<path d="M29.9921 35.4922C29.7772 35.707 29.7687 36.025 29.9749 36.2055C30.1038 36.3172 30.3101 36.3516 30.9546 36.3516C31.8569 36.3516 32.0546 36.257 32.0546 35.8102C32.0546 35.4406 31.7796 35.3203 30.9202 35.3203C30.2757 35.3203 30.1382 35.3461 29.9921 35.4922Z" fill="white"/>
<path d="M32.9139 35.4922C32.7076 35.6984 32.699 35.9047 32.8795 36.1625C32.9998 36.3344 33.0772 36.3516 33.8506 36.3516C34.7787 36.3516 34.9764 36.257 34.9764 35.8102C34.9764 35.4406 34.7014 35.3203 33.842 35.3203C33.1975 35.3203 33.06 35.3461 32.9139 35.4922Z" fill="white"/>
<path d="M35.8359 35.4922C35.7414 35.5867 35.6641 35.7414 35.6641 35.8359C35.6641 35.9305 35.7414 36.0852 35.8359 36.1797C35.982 36.3258 36.1195 36.3516 36.807 36.3516C37.7008 36.3516 37.8984 36.2484 37.8984 35.8102C37.8984 35.4406 37.6234 35.3203 36.7641 35.3203C36.1195 35.3203 35.982 35.3461 35.8359 35.4922Z" fill="white"/>
<path d="M6.24761 38.8266C6.04136 39.05 6.06714 39.4109 6.29058 39.5656C6.42808 39.6687 6.69449 39.7031 7.23589 39.7031C7.88042 39.7031 8.01792 39.6773 8.16402 39.5312C8.25855 39.4367 8.33589 39.282 8.33589 39.1875C8.33589 39.093 8.25855 38.9383 8.16402 38.8438C8.01792 38.6977 7.88042 38.6719 7.19292 38.6719C6.52261 38.6719 6.35933 38.6977 6.24761 38.8266Z" fill="white"/>
<path d="M9.16949 38.8266C8.96324 39.05 8.98902 39.4109 9.21245 39.5656C9.34995 39.6687 9.61636 39.7031 10.1578 39.7031C10.8023 39.7031 10.9398 39.6773 11.0859 39.5312C11.2921 39.325 11.3007 39.1187 11.1203 38.8609C11 38.6891 10.9226 38.6719 10.1492 38.6719C9.44449 38.6719 9.2812 38.6977 9.16949 38.8266Z" fill="white"/>
<path d="M12.0914 38.8266C11.8851 39.05 11.9109 39.4109 12.1343 39.5656C12.2718 39.6687 12.5382 39.7031 13.0796 39.7031C13.7242 39.7031 13.8617 39.6773 14.0078 39.5312C14.2226 39.3164 14.2312 38.9984 14.025 38.818C13.7843 38.5945 12.289 38.6117 12.0914 38.8266Z" fill="white"/>
<path d="M29.9664 38.8266C29.7687 39.0414 29.7859 39.325 29.9922 39.5312C30.1383 39.6773 30.2758 39.7031 30.9203 39.7031C31.7883 39.7031 32.0547 39.5828 32.0547 39.1961C32.0547 38.775 31.8398 38.6719 30.9203 38.6719C30.2414 38.6719 30.0781 38.6977 29.9664 38.8266Z" fill="white"/>
<path d="M32.8795 38.8609C32.699 39.1187 32.7076 39.325 32.9139 39.5312C33.06 39.6773 33.1975 39.7031 33.842 39.7031C34.71 39.7031 34.9764 39.5828 34.9764 39.1961C34.9764 38.775 34.7615 38.6719 33.8334 38.6719C33.0772 38.6719 32.9998 38.6891 32.8795 38.8609Z" fill="white"/>
<path d="M35.8359 38.8438C35.7414 38.9383 35.6641 39.093 35.6641 39.1875C35.6641 39.282 35.7414 39.4367 35.8359 39.5312C35.982 39.6773 36.1195 39.7031 36.7641 39.7031C37.632 39.7031 37.8984 39.5828 37.8984 39.1961C37.8984 38.775 37.6836 38.6719 36.7984 38.6719C36.1195 38.6719 35.982 38.6977 35.8359 38.8438Z" fill="white"/>
</svg>
